<?xml version="1.0" standalone="no"?>
<!DOCTYPE svg PUBLIC "-//W3C//DTD SVG 20010904//EN"
 "http://www.w3.org/TR/2001/REC-SVG-20010904/DTD/svg10.dtd">
<svg version="1.0" xmlns="http://www.w3.org/2000/svg"
 width="500.000000pt" height="500.000000pt" viewBox="0 0 500.000000 500.000000"
 preserveAspectRatio="xMidYMid meet">
<metadata>
Created by potrace 1.11, written by Peter Selinger 2001-2013
</metadata>
<g transform="translate(0.000000,500.000000) scale(0.100000,-0.100000)"
fill="#000000" stroke="none">
<path d="M0 2500 l0 -2500 2500 0 2500 0 0 2500 0 2500 -2500 0 -2500 0 0
-2500z m1474 1168 c77 -170 143 -308 146 -308 3 0 69 138 147 308 l141 307
198 0 199 0 3 -667 2 -668 -185 0 -185 0 -2 346 -3 347 -109 -242 -109 -241
-97 0 -97 0 -109 241 -109 242 -3 -347 -2 -346 -185 0 -185 0 0 663 c0 365 3
667 7 671 4 3 94 5 202 4 l194 -3 141 -307z m1818 283 c126 -50 226 -153 279
-289 18 -45 22 -77 22 -152 0 -141 -44 -246 -140 -337 l-45 -42 146 -239 c80
-132 146 -242 146 -246 0 -3 -91 -6 -203 -6 l-202 0 -125 203 -126 202 -72 3
-72 3 0 -206 0 -205 -180 0 -180 0 0 671 0 671 348 -4 c333 -4 349 -5 404 -27z
m798 -1136 l0 -176 -142 3 -143 3 -3 160 c-1 87 0 165 2 172 4 10 40 13 146
13 l140 0 0 -175z m-2632 -390 c97 -23 179 -70 252 -144 36 -36 73 -80 82 -97
l17 -30 -129 -92 c-146 -104 -160 -112 -160 -87 0 9 -24 40 -53 69 -54 54
-105 76 -178 76 -93 0 -178 -61 -225 -162 -27 -59 -29 -71 -29 -188 0 -114 2
-130 26 -180 54 -116 129 -170 235 -170 93 1 173 50 215 132 l14 26 115 -69
c63 -38 130 -78 148 -89 l33 -20 -26 -49 c-54 -98 -167 -181 -310 -228 -114
-37 -268 -38 -374 -4 -346 114 -542 536 -415 894 72 201 228 349 429 408 76
22 246 24 333 4z m1412 -655 l248 -665 -191 -3 c-104 -1 -191 -1 -193 1 -2 2
-21 59 -42 128 l-38 124 -180 3 -180 2 -39 -130 -38 -130 -194 0 c-106 0 -193
2 -193 4 0 6 491 1319 496 1328 3 5 71 7 151 6 l146 -3 247 -665z m1031 660
c242 -46 412 -290 371 -532 -16 -97 -64 -191 -129 -256 l-52 -53 139 -228 c77
-125 142 -236 146 -245 6 -15 -11 -16 -197 -14 l-204 3 -125 202 -125 202 -72
1 -73 0 0 -205 0 -205 -180 0 -180 0 0 670 0 670 314 0 c172 0 337 -5 367 -10z"/>
<path d="M2900 3515 l0 -145 125 0 c122 0 125 1 155 28 70 61 58 207 -20 247
-21 11 -61 15 -145 15 l-115 0 0 -145z"/>
<path d="M2441 1935 c-19 -66 -46 -166 -61 -222 l-28 -103 119 0 c65 0 119 2
119 4 0 4 -107 410 -113 431 -2 5 -18 -45 -36 -110z"/>
<path d="M3584 2107 c-2 -7 -3 -71 -2 -143 l3 -129 126 -3 c124 -3 126 -2 152
24 33 33 51 95 43 147 -16 96 -52 117 -204 117 -83 0 -114 -3 -118 -13z"/>
</g>
</svg>
